<svg id="visual" viewBox="0 0 900 600" width="900" height="600" xmlns="http://www.w3.org/2000/svg" xmlns:xlink="http://www.w3.org/1999/xlink" version="1.1"><rect x="0" y="0" width="900" height="600" fill="#FFFFFF"></rect><defs><linearGradient id="grad1_0" x1="33.3%" y1="0%" x2="100%" y2="100%"><stop offset="20%" stop-color="#ffffff" stop-opacity="1"></stop><stop offset="80%" stop-color="#ffffff" stop-opacity="1"></stop></linearGradient></defs><defs><linearGradient id="grad2_0" x1="0%" y1="0%" x2="66.7%" y2="100%"><stop offset="20%" stop-color="#ffffff" stop-opacity="1"></stop><stop offset="80%" stop-color="#ffffff" stop-opacity="1"></stop></linearGradient></defs><g transform="translate(900, 0)"><path d="M0 459.7C-27.6 459.2 -55.3 458.7 -78.5 445.1C-101.7 431.6 -120.5 405 -142.6 391.9C-164.7 378.7 -190.1 378.9 -215 372.4C-239.9 365.9 -264.1 352.6 -279 332.5C-293.8 312.3 -299.1 285.4 -321 269.3C-342.8 253.3 -381.1 248.2 -396.6 229C-412.2 209.8 -405 176.7 -412.5 150.1C-420.1 123.6 -442.4 103.7 -452.7 79.8C-463 55.9 -461.4 28 -459.7 0L0 0Z" fill="#C8E4B2"></path></g><g transform="translate(0, 600)"><path d="M0 -459.7C25.1 -449.2 50.3 -438.7 76.6 -434.3C102.9 -429.9 130.3 -431.6 153.9 -422.9C177.5 -414.1 197.4 -394.8 220.5 -381.9C243.6 -369 270.1 -362.4 291.8 -347.8C313.6 -333.2 330.6 -310.6 339.4 -284.8C348.1 -258.9 348.6 -229.8 358.5 -207C368.5 -184.2 388 -167.9 406.9 -148.1C425.8 -128.3 444 -105.1 452.7 -79.8C461.4 -54.6 460.6 -27.3 459.7 0L0 0Z" fill="#C8E4B2"></path></g></svg>