<?xml version="1.0" encoding="utf-8"?>
<!-- Generator: Adobe Illustrator 27.5.0, SVG Export Plug-In . SVG Version: 6.00 Build 0)  -->
<svg version="1.1" xmlns="http://www.w3.org/2000/svg" xmlns:xlink="http://www.w3.org/1999/xlink" x="0px" y="0px"
	 viewBox="0 0 500 500" style="enable-background:new 0 0 500 500;" xml:space="preserve">
<g id="BACKGROUND">
	<rect style="fill:#FFFFFF;" width="500" height="500"/>
</g>
<g id="OBJECTS">
	<path style="fill:#FFF2E3;" d="M439.97,236.498c-14.607-32.226-44.928-51.782-67.852-77.366
		c-21.363-23.841-30.474-55.615-51.655-79.259c-26.482-29.562-69.296-36.069-106.857-30.766c-11.688,1.65-23.142,4.435-33.898,8.093
		c-10.801,3.673-21.348,8.321-31.323,13.862c-33.063,18.363-57.759,44.817-72.502,79.657c-12.547,29.648-17.42,62.355-12.306,94.249
		c8.426,52.548,41.283,100.011,85.747,129.255c44.464,29.245,99.663,40.657,152.566,34.862
		c42.758-4.684,85.594-21.219,114.559-53.019C445.412,324.265,457.728,275.675,439.97,236.498z"/>
	<g>
		<g>
			<g>
				<path style="fill:#D35D57;" d="M306.473,79.644c-19.863-2.835-18.96,16.886-18.96,16.886l10.042,1.123
					c-2.156-5.486,1.124-11.264,7.579-10.944c6.455,0.32,5.303,8.278,1.877,11.537c-3.003,2.857-7.599,6.788-7.599,6.788
					l-2.298,9.806l9.32,1.874l0.895-9.314c0,0,5.048-2.408,9.276-7.832C318.677,96.91,321.841,81.838,306.473,79.644z"/>
				<path style="fill:#D35D57;" d="M300.956,119.85c-3.136-0.631-6.052,0.717-6.513,3.009c-0.461,2.293,1.708,4.662,4.844,5.293
					c3.136,0.631,6.052-0.717,6.513-3.009C306.26,122.851,304.092,120.481,300.956,119.85z"/>
			</g>
			<g>
				<path style="fill:#D35D57;" d="M327.584,124.223c-10.378-7.125-15.361,4.214-15.361,4.214l5.333,3.427
					c0.315-3.685,3.768-6.02,7.308-4.043c3.54,1.977,0.676,6.131-2.157,7.009c-2.484,0.77-6.162,1.7-6.162,1.7l-4.022,4.873
					l4.718,3.649l3.096-4.987c0,0,3.508,0.052,7.396-1.821C329.638,137.329,335.613,129.736,327.584,124.223z"/>
				<path style="fill:#D35D57;" d="M313.287,145.291c-1.588-1.228-3.602-1.282-4.5-0.122c-0.897,1.161-0.338,3.097,1.249,4.324
					c1.588,1.228,3.602,1.282,4.5,0.122C315.434,148.455,314.874,146.519,313.287,145.291z"/>
			</g>
		</g>
	</g>
	<g>
		<defs>
			<rect id="SVGID_1_" width="500" height="500"/>
		</defs>
		<clipPath id="SVGID_00000124154434365661419510000017862238494632791991_">
			<use xlink:href="#SVGID_1_"  style="overflow:visible;"/>
		</clipPath>
		<g style="clip-path:url(#SVGID_00000124154434365661419510000017862238494632791991_);">
			<g>
				<g>
					<polygon style="fill:#4D52A8;" points="190.417,347.861 190.115,637.169 231.665,637.169 246.784,342.845 					"/>
					<polygon style="fill:#4D52A8;" points="295.572,346.631 312.865,637.169 268.352,637.169 236.194,338.155 					"/>
				</g>
				<g>
					<path style="fill:#383D84;" d="M242.372,377.354c-0.172,0-0.314-0.136-0.319-0.309l-1.164-37.907
						c-0.005-0.176,0.133-0.324,0.309-0.329c0.191,0.007,0.324,0.132,0.329,0.309l1.164,37.907c0.005,0.176-0.133,0.324-0.309,0.329
						C242.379,377.354,242.376,377.354,242.372,377.354z"/>
					<path style="fill:#383D84;" d="M242.183,371.203h-4.882c-0.171,0-0.311-0.134-0.319-0.305l-1.108-25.936
						c-0.007-0.176,0.13-0.325,0.305-0.332c0.178,0.003,0.324,0.13,0.332,0.305l1.094,25.631h4.577c0.175,0,0.319,0.143,0.319,0.319
						C242.502,371.06,242.359,371.203,242.183,371.203z"/>
					<path style="fill:#383D84;" d="M290.997,368.644c-2.71,0-5.167-0.891-7.327-2.659c-8.09-6.623-9.406-23.14-9.458-23.84
						c-0.014-0.175,0.118-0.329,0.294-0.341c0.167-0.034,0.327,0.118,0.341,0.294c0.012,0.169,1.349,16.946,9.227,23.395
						c2.442,1.999,5.295,2.807,8.468,2.415c0.194-0.017,0.335,0.103,0.356,0.276c0.022,0.176-0.102,0.334-0.276,0.356
						C292.071,368.609,291.528,368.644,290.997,368.644z"/>
					<path style="fill:#383D84;" d="M192.162,369.541c-0.088,0-0.178-0.037-0.24-0.109c-0.116-0.133-0.101-0.335,0.031-0.449
						c0.086-0.075,8.502-7.608,6.875-25.336c-0.016-0.174,0.113-0.33,0.289-0.346c0.176-0.027,0.33,0.113,0.346,0.289
						c1.659,18.077-7.004,25.799-7.091,25.875C192.31,369.515,192.237,369.541,192.162,369.541z"/>
				</g>
				<g>
					<g>
						<path style="fill:#EFAD9C;" d="M323.292,297.513c-5.862,0-11.326-3.703-13.292-9.566l-30.444-90.78
							c-2.462-7.343,1.492-15.29,8.834-17.752c7.344-2.468,15.291,1.494,17.752,8.834l30.445,90.78
							c2.462,7.343-1.492,15.289-8.834,17.752C326.273,297.277,324.77,297.513,323.292,297.513z"/>
						<g>
							<path style="fill:#EFAD9C;" d="M310.89,277.34l37.371-80.63c2.101-4.532,7.478-6.504,12.01-4.403
								c4.221,1.956,6.22,6.755,4.778,11.066l-28.095,84.312c-2.452,7.358-10.404,11.335-17.763,8.883
								c-7.358-2.452-11.335-10.404-8.883-17.763C310.475,278.305,310.674,277.808,310.89,277.34z"/>
							<g>
								<path style="fill:#EFAD9C;" d="M348.027,201.346c-1.546-4.675,3.838-10.208,8.231-12.625
									c7.851-4.319,27.19-6.618,28.127-5.04s-10.427,6.7-10.427,6.7s8.573-0.235,11.693,1.026c0,0,8.531-9.964,10.351-9.413
									c1.821,0.551-1.737,6.749-1.737,6.749s8.308-5.523,9.472-4.411c1.164,1.112-10.602,11.437-13.318,13.097
									c-2.716,1.66-18.747,8.781-27.583,9.578C354.001,207.802,349.513,205.839,348.027,201.346z"/>
								<g>
									<path style="fill:#B56757;" d="M379.953,201.608c-0.075,0-0.15-0.032-0.202-0.094c-0.094-0.111-0.079-0.278,0.032-0.372
										c2.456-2.065,6.313-5.712,6.209-6.703c-0.005-0.046-0.02-0.068-0.06-0.09c-1.02-0.538-6.77,2.3-10.156,4.217l-0.071,0.04
										l-0.082-0.007c-0.039-0.004-3.992-0.344-7.452,0.488c-0.147,0.035-0.284-0.055-0.318-0.195
										c-0.034-0.142,0.053-0.284,0.195-0.318c3.264-0.784,6.945-0.552,7.539-0.507c1.657-0.936,9.045-5.014,10.592-4.184
										c0.197,0.105,0.314,0.278,0.337,0.5c0.165,1.559-5.296,6.238-6.393,7.161C380.074,201.588,380.014,201.608,379.953,201.608
										z"/>
									<path style="fill:#B56757;" d="M383.395,194.838c-0.055,0-0.109-0.016-0.156-0.051c-0.117-0.085-0.143-0.25-0.057-0.368
										l2.089-2.846c0.087-0.118,0.254-0.143,0.369-0.057c0.117,0.085,0.143,0.25,0.057,0.368l-2.089,2.846
										C383.555,194.801,383.475,194.838,383.395,194.838z"/>
									<path style="fill:#B56757;" d="M384.439,200.069c-0.091,0-0.179-0.047-0.228-0.131c-0.073-0.127-0.03-0.287,0.096-0.36
										c1.438-0.836,5.287-3.154,5.813-3.836c0.65-0.846,3.678-6.798,3.709-6.857c0.065-0.131,0.225-0.182,0.354-0.115
										c0.13,0.066,0.182,0.225,0.115,0.354c-0.125,0.247-3.081,6.055-3.761,6.94c-0.685,0.89-5.428,3.658-5.967,3.97
										C384.53,200.058,384.484,200.069,384.439,200.069z"/>
								</g>
							</g>
							<path style="fill:#B56757;" d="M312.121,273.583c-0.073,0.018-0.151,0.01-0.222-0.026c-0.157-0.08-0.219-0.273-0.138-0.429
								l8.507-16.505c0.082-0.157,0.276-0.217,0.429-0.138c0.157,0.081,0.219,0.273,0.138,0.429l-8.507,16.505
								C312.284,273.505,312.207,273.562,312.121,273.583z"/>
						</g>
					</g>
					<path style="fill:#7EC1AE;" d="M280.791,175.487c20.94-2.669,26.013,2.511,28.793,9.949s16.24,52.661,16.24,52.661
						s9.826-23.891,12.248-25.708c2.423-1.817,22.006,5.384,23.487,9.354c1.48,3.971-15.277,57.54-21.468,68.307
						c-6.191,10.768-23.93,14.671-32.02,1.346c-8.09-13.325-18.644-48.916-18.644-48.916L280.791,175.487z"/>
					<g>
						<path style="fill:#EFAD9C;" d="M108.972,147.07l80.32-31.534c4.65-1.826,9.9,0.464,11.726,5.115
							c1.697,4.321-0.162,9.16-4.164,11.288l-76.142,40.597c-6.844,3.649-15.351,1.059-19.001-5.785
							c-3.649-6.845-1.059-15.352,5.785-19.001C107.977,147.494,108.478,147.266,108.972,147.07z"/>
						<path style="fill:#EFAD9C;" d="M187.758,130.611c0,0,14.817,21.168,17.522,21.302c2.705,0.133-3.975-15.918-3.975-15.918
							s40.753-6.733,40.704-9.104c-0.049-2.371-18.071-0.193-18.071-0.193s19.67-5.077,19.121-7.459
							c-0.498-2.159-21.255,1.911-21.255,1.911s19.889-7.478,18.244-9c-1.645-1.523-20.245,3.872-20.245,3.872
							s15.099-7.947,13.897-8.892c-1.202-0.945-18.056,4.218-18.056,4.218c-8.345,1.123-18.284,1.565-22.137,2.612
							C178.198,118.118,187.758,130.611,187.758,130.611z"/>
						<path style="fill:#EFAD9C;" d="M99.374,160.747c-0.067-1.723,0.185-3.486,0.794-5.21c2.579-7.302,10.589-11.13,17.89-8.551
							l92.152,32.551c7.303,2.577,11.132,10.592,8.551,17.89c-2.579,7.302-10.589,11.13-17.89,8.551l-92.152-32.551
							C103.141,171.457,99.59,166.317,99.374,160.747z"/>
						<path style="fill:#B56757;" d="M127.029,168.044c-0.004-0.093,0.034-0.188,0.111-0.255l13.443-11.529
							c0.134-0.114,0.335-0.099,0.45,0.035c0.112,0.133,0.099,0.335-0.035,0.45l-13.443,11.528c-0.134,0.114-0.335,0.099-0.45-0.035
							C127.057,168.183,127.032,168.114,127.029,168.044z"/>
					</g>
					<path style="fill:#7EC1AE;" d="M211.426,174.191l-55.776-16.286c0,0,27.458-13.866,28.714-16.57
						c1.256-2.704-6.371-19.663-11.755-21.099c-5.384-1.436-59.985,20.565-70.752,27.825c-10.768,7.26-5.384,22.692,5.115,27.426
						c10.499,4.734,99.331,40.671,99.331,40.671L211.426,174.191z"/>
					<g>
						<g>
							<path style="fill:#E2817F;" d="M197.907,240.441c-4.055,32.09-7.728,80.051-8.868,119.095
								c36.511,3.164,72.548,2.782,108.067-1.454c-2.982-33.884-3.904-81.022-0.821-117.948l-15.495-64.647l-40.168,3.809
								l-29.197-5.105L197.907,240.441z"/>
						</g>
					</g>
					<g>
						<path style="fill:#D35D57;" d="M273.868,227.172c-17.757,4.381-36.406,5.216-54.475,2.338
							c-5.178-0.825-10.302-1.952-15.354-3.353c-2.619-0.726-3.737,3.341-1.121,4.067c18.178,5.04,37.358,6.435,56.068,4.003
							c5.389-0.701,10.728-1.686,16.004-2.988C277.623,230.589,276.507,226.521,273.868,227.172z"/>
						<path style="fill:#D35D57;" d="M273.868,237.868c-17.757,4.381-36.406,5.216-54.475,2.338
							c-5.178-0.825-10.302-1.952-15.354-3.353c-2.619-0.726-3.737,3.341-1.121,4.067c18.178,5.04,37.358,6.435,56.068,4.003
							c5.389-0.701,10.728-1.686,16.004-2.988C277.623,241.285,276.507,237.217,273.868,237.868z"/>
						<path style="fill:#D35D57;" d="M273.868,248.563c-17.757,4.381-36.406,5.216-54.475,2.338
							c-5.178-0.825-10.302-1.952-15.354-3.353c-2.619-0.726-3.737,3.341-1.121,4.067c18.178,5.04,37.358,6.435,56.068,4.002
							c5.389-0.7,10.728-1.686,16.004-2.987C277.623,251.98,276.507,247.912,273.868,248.563z"/>
					</g>
					<path style="fill:#488974;" d="M207.514,348.959c0,0,0.426,12.181-0.538,13.168c-0.965,0.987-20.997-0.135-21.872-1.346
						c-0.875-1.211-0.336-11.474-0.336-11.474L207.514,348.959z"/>
					<path style="fill:#7EC1AE;" d="M223.474,176.298c-11.594,70.281-13.402,172.706-14.883,174.456
						c-1.48,1.75-21.939,2.423-24.362,0c-2.423-2.423,11.102-124.982,15.084-139.441c3.982-14.459,12.112-37.122,12.112-37.122
						L223.474,176.298z"/>
					<path style="fill:#A4D8C8;" d="M223.474,176.298c-2.438,16.26-5.641,40.583-5.641,40.583
						c-14.31-18.859,0.367-41.505,0.367-41.505L223.474,176.298z"/>
					<path style="fill:#488974;" d="M304.356,348.802l-39.706,2.019c0,0,0.471,10.768,1.75,11.642
						c1.279,0.875,35.735,0.548,37.216-0.837C305.096,360.243,304.356,348.802,304.356,348.802z"/>
					<path style="fill:#7EC1AE;" d="M262.772,177.196c-13.009,111.228-2.766,172.616-0.074,174.5
						c2.692,1.884,41.186,2.019,43.205-1.211c2.019-3.23-7.268-49.531-7.941-62.587c-0.673-13.056-0.855-50.577-0.855-50.577
						l-15.266-61.961L262.772,177.196z"/>
					<g>
						<path style="fill:#FFFFFF;" d="M282.105,229.057c-1.328,0.829-2.838,1.202-4.402,1.072c-1.686-0.139-3.036-0.988-4.369-1.958
							c-2.249-1.637-5.618-3.315-7.985-0.864c-0.943,0.977,0.546,2.47,1.491,1.491c0.891-0.923,2.34-0.674,3.383-0.149
							c1.461,0.736,2.631,1.937,4.098,2.666c2.801,1.392,6.197,1.217,8.848-0.438C284.318,230.16,283.26,228.335,282.105,229.057z"
							/>
						<path style="fill:#FFFFFF;" d="M282.105,234.127c-1.328,0.829-2.838,1.202-4.402,1.072c-1.686-0.14-3.036-0.988-4.369-1.958
							c-2.249-1.637-5.618-3.315-7.985-0.864c-0.943,0.977,0.546,2.47,1.491,1.491c0.891-0.923,2.34-0.674,3.383-0.149
							c1.461,0.736,2.631,1.937,4.098,2.666c2.801,1.392,6.197,1.217,8.848-0.438C284.318,235.231,283.26,233.406,282.105,234.127z"
							/>
					</g>
					<path style="fill:#A4D8C8;" d="M269.07,176.589l-6.297,0.606c-0.734,7.518-3.874,39.685-3.874,39.685
						S277.325,198.661,269.07,176.589z"/>
					<g>
						<path style="fill:#488974;" d="M199.035,211.668c-0.143,0-0.26-0.113-0.264-0.257c-0.301-12.084,2.967-24.443,9.202-34.8
							c0.076-0.126,0.237-0.164,0.362-0.09c0.125,0.075,0.165,0.237,0.09,0.361c-6.183,10.273-9.425,22.53-9.127,34.516
							c0.004,0.145-0.112,0.266-0.257,0.27C199.039,211.668,199.037,211.668,199.035,211.668z"/>
						<path style="fill:#488974;" d="M295.483,262.751c-0.115,0-0.22-0.075-0.253-0.19c-7.301-25.403-9.704-52.724-6.947-79.011
							c0.014-0.144,0.144-0.252,0.289-0.235c0.145,0.016,0.25,0.145,0.235,0.29c-2.75,26.219-0.354,53.471,6.929,78.809
							c0.04,0.14-0.041,0.286-0.181,0.326C295.531,262.748,295.507,262.751,295.483,262.751z"/>
						<path style="fill:#488974;" d="M327.923,262.992c0,0,0,0-0.001,0c-0.146-0.001-0.263-0.119-0.263-0.265
							c0.032-7.813-0.615-15.679-1.923-23.381c-0.024-0.144,0.072-0.28,0.216-0.304c0.142-0.027,0.28,0.071,0.304,0.215
							c1.313,7.732,1.962,15.629,1.931,23.471C328.186,262.875,328.068,262.992,327.923,262.992z"/>
						<path style="fill:#488974;" d="M153.842,157.847c-0.019,0-0.038-0.002-0.057-0.006c-7.386-1.632-14.945-2.817-22.467-3.521
							c-0.145-0.013-0.251-0.142-0.238-0.287c0.013-0.145,0.146-0.257,0.287-0.238c7.545,0.706,15.125,1.895,22.531,3.532
							c0.143,0.032,0.232,0.172,0.201,0.314C154.072,157.764,153.963,157.847,153.842,157.847z"/>
						<path style="fill:#488974;" d="M144.686,155.943c-0.047,0-0.095-0.012-0.138-0.039l-6.715-4.123
							c-0.124-0.076-0.163-0.238-0.087-0.362c0.075-0.124,0.238-0.165,0.362-0.087l6.715,4.123c0.124,0.076,0.163,0.238,0.087,0.362
							C144.861,155.898,144.775,155.943,144.686,155.943z"/>
						<path style="fill:#488974;" d="M331.593,260.42c-0.114,0-0.218-0.074-0.253-0.188c-1.054-3.521-2.424-6.978-4.073-10.27
							c-0.065-0.131-0.012-0.289,0.118-0.354c0.129-0.064,0.288-0.011,0.354,0.117c1.662,3.322,3.043,6.806,4.106,10.357
							c0.042,0.139-0.037,0.286-0.177,0.327C331.643,260.417,331.617,260.42,331.593,260.42z"/>
					</g>
				</g>
				<g>
					<g>
						<path style="fill:#EFAD9C;" d="M256.205,152.699l2.066,29.565c0,0-16.87,8.404-28.044,1.859l0.391-22.437L256.205,152.699z"/>
						<path style="fill:#AD6253;" d="M230.363,176.298c14.83-1.258,20.043-9.353,20.043-9.353l-19.905,1.403L230.363,176.298z"/>
						<path style="fill:#EFAD9C;" d="M260.88,177.376l-20.256,1.921l-13.051-2.282C227.259,195.928,255.094,196.373,260.88,177.376z
							"/>
					</g>
					<g>
						<path style="fill:#162A45;" d="M257.684,160.044c5.42-2.689,9.793-7.426,12.042-13.043c2.156-5.385,2.596-11.032,2.776-16.829
							c1.444-0.546,2.199-2.222,2.156-3.765c-0.043-1.543-0.713-2.99-1.371-4.386c1.82-0.035,3.324-1.673,3.688-3.456
							c0.364-1.784-0.194-3.636-1.014-5.261c-1.906-3.773-5.307-6.766-9.292-8.177c0.206-5.885-2.614-11.823-6.912-15.849
							c-1.886-1.767-4.179-3.204-6.731-3.61c-2.552-0.406-5.377,0.362-7.027,2.351c-3.504-3.217-8.434-4.82-13.159-4.279
							c-4.726,0.541-9.166,3.216-11.852,7.141c-2.352-0.308-4.445,0.184-6.646,1.07c-2.201,0.886-4.132,2.561-5.052,4.748
							c-0.92,2.187-0.714,4.88,0.757,6.741c-2.788,2.281-4.779,6.112-5.087,9.701c-0.308,3.589,0.894,7.284,3.254,10.006
							c1.068,6.133,3.257,11.931,5.992,17.523C221.192,154.95,241.908,158.085,257.684,160.044z"/>
						<path style="fill:#EFAD9C;" d="M226.282,103.431c27.605-3.424,42.098,9.855,39.761,35.641
							c-1.86,20.528-13.779,33.3-33.187,33.362c-17.877,0.058-20.779-14.533-21.02-29.838
							C211.493,120.775,209.891,105.464,226.282,103.431z"/>
						<path style="fill:#162A45;" d="M211.666,115.374c0.17,0.718,0.8,1.257,1.495,1.504s1.451,0.244,2.187,0.207
							c4.792-0.242,9.506-1.884,13.411-4.674c-0.713,1.118-0.077,2.702,1.022,3.444c1.099,0.742,2.497,0.849,3.823,0.868
							c4.235,0.062,8.48-0.533,12.535-1.757c-0.69,1.433,0.335,3.223,1.77,3.907c1.436,0.684,3.113,0.55,4.689,0.34
							c-0.78,2.619-0.37,5.617,0.676,8.142c1.046,2.525,2.982,4.671,5.385,5.971c-0.725,2.722-0.316,5.728,1.11,8.158
							c1.426,2.43,3.85,4.253,6.58,4.949c0.79-7.298,1.521-14.656-0.052-21.826c-1.572-7.17-5.225-14.099-11.152-18.429
							c-5.228-3.819-11.82-5.357-18.287-5.671c-5.42-0.263-11.016,0.313-15.857,2.764
							C216.163,105.722,210.418,110.094,211.666,115.374z"/>
						<g>
							<path style="fill:#162A45;" d="M213.052,133.551c0,0,6.321-3.027,10.63-3.466
								C220.559,127.628,215.062,130.819,213.052,133.551z"/>
							<path style="fill:#162A45;" d="M245.359,133.739c0,0-6.203-3.262-10.492-3.863
								C238.08,127.539,243.454,130.934,245.359,133.739z"/>
							<g>
								<path style="fill:#162A45;" d="M221.536,142.236c0,1.369-0.901,2.479-2.012,2.479c-1.111,0-2.012-1.11-2.012-2.479
									c0-1.369,0.901-2.479,2.012-2.479C220.635,139.757,221.536,140.867,221.536,142.236z"/>
								<path style="fill:#FFFFFF;" d="M219.524,141.335c0,0.441-0.283,0.799-0.632,0.799c-0.349,0-0.632-0.358-0.632-0.799
									c0-0.441,0.283-0.798,0.632-0.798C219.242,140.536,219.524,140.894,219.524,141.335z"/>
							</g>
							<g>
								<path style="fill:#162A45;" d="M241.001,142.236c0,1.369-0.901,2.479-2.012,2.479c-1.111,0-2.012-1.11-2.012-2.479
									c0-1.369,0.901-2.479,2.012-2.479C240.1,139.757,241.001,140.867,241.001,142.236z"/>
								<path style="fill:#FFFFFF;" d="M238.989,141.335c0,0.441-0.283,0.799-0.631,0.799c-0.349,0-0.632-0.358-0.632-0.799
									c0-0.441,0.283-0.798,0.632-0.798C238.706,140.536,238.989,140.894,238.989,141.335z"/>
							</g>
							<path style="fill:#AD6253;" d="M227.136,151.365c-0.04,0-0.078-0.004-0.118-0.011c-1.182-0.219-2.019-0.712-2.42-1.424
								c-0.225-0.401-0.419-1.076-0.066-2.009c0.202-0.53,0.609-1.209,1.039-1.928c0.395-0.657,0.802-1.337,0.966-1.779
								c0.123-0.329,0.489-0.498,0.82-0.375c0.33,0.123,0.498,0.49,0.375,0.82c-0.205,0.551-0.625,1.25-1.068,1.989
								c-0.383,0.639-0.779,1.299-0.94,1.724c-0.147,0.386-0.151,0.691-0.015,0.932c0.205,0.367,0.753,0.65,1.542,0.797
								c0.346,0.063,0.574,0.397,0.509,0.743C227.705,151.15,227.436,151.365,227.136,151.365z"/>
							<path style="fill:#944A3B;" d="M235.189,155.621c-2.607-0.836-5.409-0.936-8.1-0.287c-0.398,0.096-0.531,0.459-0.457,0.768
								c0.079,0.327,0.377,0.604,0.799,0.505c2.43-0.586,4.989-0.49,7.396,0.282c0.072,0.023,0.142,0.034,0.21,0.034
								c0.144,0,0.277-0.051,0.386-0.15c0.177-0.161,0.26-0.431,0.207-0.674C235.581,155.868,235.42,155.695,235.189,155.621z"/>
						</g>
						<g>
							<path style="fill:#EFAD9C;" d="M261.454,142.893c-1.636,4.044-0.46,7.946,2.468,9.132c2.928,1.186,6.628-1.132,8.264-5.176
								c1.636-4.044,0.589-8.284-2.339-9.47C266.919,136.193,263.09,138.849,261.454,142.893z"/>
							<path style="fill:#AD6253;" d="M264.277,148.108c-0.261,0-0.507-0.162-0.6-0.423c-0.118-0.331,0.053-0.696,0.386-0.814
								c0.651-0.233,1.372-0.85,1.414-1.656c0.016-0.316-0.102-0.626-0.24-0.985c-0.136-0.355-0.29-0.756-0.319-1.216
								c-0.054-0.844,0.276-1.724,0.884-2.355c0.773-0.804,1.786-1.197,2.709-1.046c1.536,0.249,2.339,1.745,2.339,3.093
								c0,0.352-0.285,0.637-0.637,0.637c-0.352,0-0.637-0.285-0.637-0.637c0-0.789-0.444-1.702-1.268-1.836
								c-0.607-0.099-1.23,0.301-1.586,0.672c-0.363,0.377-0.561,0.897-0.53,1.392c0.016,0.265,0.123,0.544,0.237,0.839
								c0.166,0.432,0.353,0.921,0.322,1.509c-0.073,1.395-1.186,2.406-2.258,2.788C264.42,148.096,264.348,148.108,264.277,148.108
								z"/>
						</g>
					</g>
				</g>
			</g>
		</g>
	</g>
</g>
</svg>
