<svg id="visual" viewBox="0 0 900 600" width="900" height="600" xmlns="http://www.w3.org/2000/svg" xmlns:xlink="http://www.w3.org/1999/xlink" version="1.1"><path d="M0 73L39 79L78 79L117 79L157 73L196 79L235 73L274 67L313 79L352 73L391 73L430 73L470 73L509 67L548 79L587 79L626 67L665 73L704 73L743 67L783 67L822 73L861 67L900 73L900 0L861 0L822 0L783 0L743 0L704 0L665 0L626 0L587 0L548 0L509 0L470 0L430 0L391 0L352 0L313 0L274 0L235 0L196 0L157 0L117 0L78 0L39 0L0 0Z" fill="#00cc8e"></path><path d="M0 97L39 103L78 103L117 103L157 97L196 103L235 97L274 91L313 103L352 97L391 97L430 97L470 97L509 91L548 103L587 103L626 91L665 97L704 97L743 91L783 91L822 97L861 91L900 97L900 71L861 65L822 71L783 65L743 65L704 71L665 71L626 65L587 77L548 77L509 65L470 71L430 71L391 71L352 71L313 77L274 65L235 71L196 77L157 71L117 77L78 77L39 77L0 71Z" fill="#00bb8a"></path><path d="M0 121L39 127L78 127L117 127L157 121L196 127L235 121L274 115L313 127L352 121L391 121L430 121L470 121L509 115L548 127L587 127L626 115L665 121L704 121L743 115L783 115L822 121L861 115L900 121L900 95L861 89L822 95L783 89L743 89L704 95L665 95L626 89L587 101L548 101L509 89L470 95L430 95L391 95L352 95L313 101L274 89L235 95L196 101L157 95L117 101L78 101L39 101L0 95Z" fill="#00aa85"></path><path d="M0 169L39 169L78 169L117 175L157 169L196 169L235 169L274 163L313 175L352 169L391 163L430 163L470 169L509 157L548 169L587 175L626 157L665 169L704 169L743 163L783 157L822 169L861 163L900 169L900 119L861 113L822 119L783 113L743 113L704 119L665 119L626 113L587 125L548 125L509 113L470 119L430 119L391 119L352 119L313 125L274 113L235 119L196 125L157 119L117 125L78 125L39 125L0 119Z" fill="#009a7f"></path><path d="M0 205L39 199L78 199L117 211L157 199L196 199L235 199L274 193L313 205L352 199L391 199L430 199L470 205L509 187L548 199L587 205L626 187L665 199L704 199L743 199L783 187L822 205L861 199L900 199L900 167L861 161L822 167L783 155L743 161L704 167L665 167L626 155L587 173L548 167L509 155L470 167L430 161L391 161L352 167L313 173L274 161L235 167L196 167L157 167L117 173L78 167L39 167L0 167Z" fill="#008977"></path><path d="M0 337L39 325L78 313L117 325L157 313L196 313L235 313L274 325L313 325L352 313L391 319L430 331L470 325L509 301L548 319L587 325L626 319L665 319L704 325L743 331L783 313L822 325L861 325L900 319L900 197L861 197L822 203L783 185L743 197L704 197L665 197L626 185L587 203L548 197L509 185L470 203L430 197L391 197L352 197L313 203L274 191L235 197L196 197L157 197L117 209L78 197L39 197L0 203Z" fill="#038373"></path><path d="M0 373L39 367L78 355L117 361L157 355L196 349L235 349L274 367L313 361L352 355L391 355L430 367L470 361L509 337L548 361L587 361L626 355L665 361L704 367L743 373L783 355L822 361L861 361L900 355L900 317L861 323L822 323L783 311L743 329L704 323L665 317L626 317L587 323L548 317L509 299L470 323L430 329L391 317L352 311L313 323L274 323L235 311L196 311L157 311L117 323L78 311L39 323L0 335Z" fill="#038373"></path><path d="M0 397L39 397L78 379L117 385L157 385L196 373L235 379L274 391L313 385L352 385L391 379L430 397L470 391L509 367L548 391L587 391L626 385L665 391L704 391L743 397L783 385L822 385L861 391L900 379L900 353L861 359L822 359L783 353L743 371L704 365L665 359L626 353L587 359L548 359L509 335L470 359L430 365L391 353L352 353L313 359L274 365L235 347L196 347L157 353L117 359L78 353L39 365L0 371Z" fill="#008977"></path><path d="M0 499L39 499L78 493L117 499L157 499L196 487L235 493L274 499L313 493L352 493L391 487L430 499L470 499L509 487L548 499L587 499L626 487L665 493L704 493L743 499L783 493L822 493L861 499L900 487L900 377L861 389L822 383L783 383L743 395L704 389L665 389L626 383L587 389L548 389L509 365L470 389L430 395L391 377L352 383L313 383L274 389L235 377L196 371L157 383L117 383L78 377L39 395L0 395Z" fill="#009a7f"></path><path d="M0 547L39 547L78 547L117 547L157 547L196 547L235 547L274 547L313 547L352 547L391 547L430 547L470 547L509 547L548 547L587 547L626 547L665 547L704 547L743 547L783 547L822 547L861 547L900 547L900 485L861 497L822 491L783 491L743 497L704 491L665 491L626 485L587 497L548 497L509 485L470 497L430 497L391 485L352 491L313 491L274 497L235 491L196 485L157 497L117 497L78 491L39 497L0 497Z" fill="#00aa85"></path><path d="M0 571L39 571L78 571L117 571L157 571L196 571L235 571L274 571L313 571L352 571L391 571L430 571L470 571L509 571L548 571L587 571L626 571L665 571L704 571L743 571L783 571L822 571L861 571L900 571L900 545L861 545L822 545L783 545L743 545L704 545L665 545L626 545L587 545L548 545L509 545L470 545L430 545L391 545L352 545L313 545L274 545L235 545L196 545L157 545L117 545L78 545L39 545L0 545Z" fill="#00bb8a"></path><path d="M0 601L39 601L78 601L117 601L157 601L196 601L235 601L274 601L313 601L352 601L391 601L430 601L470 601L509 601L548 601L587 601L626 601L665 601L704 601L743 601L783 601L822 601L861 601L900 601L900 569L861 569L822 569L783 569L743 569L704 569L665 569L626 569L587 569L548 569L509 569L470 569L430 569L391 569L352 569L313 569L274 569L235 569L196 569L157 569L117 569L78 569L39 569L0 569Z" fill="#00cc8e"></path></svg>