<svg xmlns="http://www.w3.org/2000/svg" version="1.1" xmlns:xlink="http://www.w3.org/1999/xlink" xmlns:svgjs="http://svgjs.dev/svgjs" width="1500" height="935" viewBox="0 0 1500 935"><g transform="matrix(1,0,0,1,-0.9090909090909918,0.3785425101214628)"><svg viewBox="0 0 396 247" data-background-color="#ffffff" preserveAspectRatio="xMidYMid meet" height="935" width="1500" xmlns="http://www.w3.org/2000/svg" xmlns:xlink="http://www.w3.org/1999/xlink"><g id="tight-bounds" transform="matrix(1,0,0,1,0.2400000000000091,-0.09999999999999432)"><svg viewBox="0 0 395.52 247.2" height="247.2" width="395.52"><g><svg></svg></g><g><svg viewBox="0 0 395.52 247.2" height="247.2" width="395.52"><g transform="matrix(1,0,0,1,82.26618239999999,47.215199999999996)"><svg viewBox="0 0 230.9876352 152.7696" height="152.7696" width="230.9876352"><g><svg viewBox="0 0 230.9876352 152.7696" height="152.7696" width="230.9876352"><g><svg viewBox="0 0 230.9876352 152.7696" height="152.7696" width="230.9876352"><g id="textblocktransform"><svg viewBox="0 0 230.9876352 152.7696" height="152.7696" width="230.9876352" id="textblock"><g><svg viewBox="0 0 230.9876352 152.7696" height="152.7696" width="230.9876352"><g transform="matrix(1,0,0,1,0,0)"><svg width="230.9876352" viewBox="-9 -31.25 47.25 31.25" height="152.7696" data-palette-color="#8bc53f"><path d="M38.25-31.25L36.8-23.25 29.9-23.25 25.85 0 16.35 0 20.4-23.25 13.55-23.25 15-31.25 38.25-31.25ZM15.2-2.4L14.8-0.15-6.4-2.4 15.2-2.4ZM16.9-12.05L16.5-9.8-4.7-12.05 16.9-12.05ZM17.75-16.85L17.35-14.6-3.85-16.85 17.75-16.85ZM18.6-21.65L18.2-19.4-3-21.65 18.6-21.65ZM16.05-7.25L15.65-5-5.55-7.25 16.05-7.25ZM12.55-26.45L12.2-24.2-9-26.45 12.55-26.45ZM13.4-31.25L13-29-8.15-31.25 13.4-31.25Z" opacity="1" transform="matrix(1,0,0,1,0,0)" fill="#8bc53f" class="wordmark-text-0" data-fill-palette-color="primary" id="text-0"></path></svg></g></svg></g></svg></g></svg></g></svg></g></svg></g><g><path d="M0 123.6c0-68.262 55.338-123.6 123.6-123.6 30.402 0 58.24 10.976 79.768 29.183l-11.147 0c-19.26-14.022-42.974-22.294-68.621-22.295-64.458 0-116.712 52.254-116.712 116.712 0 64.458 52.254 116.712 116.712 116.712 25.647 0 49.361-8.272 68.621-22.295l11.147 0c-21.528 18.206-49.366 29.183-79.768 29.183-68.262 0-123.6-55.338-123.6-123.6z" fill="#8bc53f" stroke="transparent" data-fill-palette-color="tertiary"></path></g></svg></g><defs></defs></svg><rect width="395.52" height="247.2" fill="none" stroke="none" visibility="hidden"></rect></g></svg></g></svg>