<?xml version="1.0" standalone="no"?><svg xmlns="http://www.w3.org/2000/svg" viewBox="0 0 1440 320"><path fill="#D2E3C8" fill-opacity="1" d="M0,64L12,80C24,96,48,128,72,122.7C96,117,120,75,144,90.7C168,107,192,181,216,176C240,171,264,85,288,85.3C312,85,336,171,360,176C384,181,408,107,432,112C456,117,480,203,504,240C528,277,552,267,576,240C600,213,624,171,648,133.3C672,96,696,64,720,80C744,96,768,160,792,165.3C816,171,840,117,864,117.3C888,117,912,171,936,208C960,245,984,267,1008,234.7C1032,203,1056,117,1080,74.7C1104,32,1128,32,1152,42.7C1176,53,1200,75,1224,96C1248,117,1272,139,1296,122.7C1320,107,1344,53,1368,53.3C1392,53,1416,107,1428,133.3L1440,160L1440,320L1428,320C1416,320,1392,320,1368,320C1344,320,1320,320,1296,320C1272,320,1248,320,1224,320C1200,320,1176,320,1152,320C1128,320,1104,320,1080,320C1056,320,1032,320,1008,320C984,320,960,320,936,320C912,320,888,320,864,320C840,320,816,320,792,320C768,320,744,320,720,320C696,320,672,320,648,320C624,320,600,320,576,320C552,320,528,320,504,320C480,320,456,320,432,320C408,320,384,320,360,320C336,320,312,320,288,320C264,320,240,320,216,320C192,320,168,320,144,320C120,320,96,320,72,320C48,320,24,320,12,320L0,320Z"></path></svg>